<svg xmlns="http://www.w3.org/2000/svg" viewBox="0 0 64 64" role="img" aria-labelledby="title desc">
  <title id="title">Fourth Canal favicon</title>
  <desc id="desc">Four simplified root-canal strands, with the fourth in oxidized copper.</desc>
  <rect width="64" height="64" rx="4" fill="#F2EDE2"/>
  <path fill="#0F1E3A" d="M15 6c-4 10-1 20-3 28-2 9 2 17 3 24 1-8 4-16 3-24-1-9 3-18-3-28Z"/>
  <path fill="#0F1E3A" d="M27 5c-4 10-1 20-3 29-2 9 2 17 3 25 1-9 4-17 3-25-1-9 3-19-3-29Z"/>
  <path fill="#0F1E3A" d="M39 6c-4 10-1 19-3 28-2 9 2 17 3 24 2-8 5-16 3-24-1-9 3-18-3-28Z"/>
  <path fill="#B35A2E" d="M51 8c-4 9-1 18-3 27-2 9 2 16 2 23 2-8 5-15 4-23-1-9 2-18-3-27Z"/>
</svg>
