<svg xmlns="http://www.w3.org/2000/svg" viewBox="0 0 1100 240" role="img" aria-labelledby="title desc">
  <title id="title">Fourth Canal outlined wordmark for dark backgrounds</title>
  <desc id="desc">Outlined production wordmark with four anatomical canal strands.</desc>
  <g transform="translate(40 20) scale(.56)">
    <path fill="#F2EDE2" d="M35 8C22 56 25 104 20 151c-5 51 5 104 10 181 4-75 14-126 11-179C38 104 49 56 35 8Z"/>
    <path fill="#F2EDE2" d="M68 4C55 57 62 103 56 150c-6 49 5 105 9 186 5-80 15-134 10-185C71 103 82 54 68 4Z"/>
    <path fill="#F2EDE2" d="M101 8C87 54 93 100 87 146c-6 53 5 108 8 187 6-79 16-132 11-185-4-47 9-92-5-140Z"/>
    <path fill="#B35A2E" d="M135 16c-14 43-7 89-13 137-6 52 5 101 5 177 8-77 18-123 14-171-4-50 9-96-6-143Z"/>
  </g>
  <path fill="#F2EDE2" d="M230.82 86.86 Q230.82 88.43 229.70 88.43 Q228.58 88.43 228.13 85.63 Q226.78 77.57 222.64 73.87 Q219.95 71.52 214.35 70.96 Q212.34 70.74 205.39 70.74 Q200.24 70.74 193.07 71.07 L193.07 103.78 Q207.41 103.89 210.77 101.93 Q214.13 99.97 214.80 90.90 Q215.02 88.32 216.14 88.32 Q217.26 88.32 217.26 90.00 Q217.26 91.01 217.15 91.68 Q216.82 99.41 216.82 106.02 Q216.82 114.53 217.26 119.46 Q217.38 119.90 217.38 120.80 Q217.38 122.14 216.26 122.14 Q215.36 122.14 215.14 121.47 Q214.91 120.80 214.35 116.32 Q213.46 109.49 210.82 107.81 Q208.19 106.13 200.35 106.13 Q196.21 106.13 193.07 106.35 L193.18 117.78 L192.96 139.73 Q192.96 142.98 195.54 143.87 Q196.77 144.32 201.02 144.21 Q202.82 144.21 202.82 145.10 Q202.82 146.11 200.58 146.11 L199.46 146.11 Q197.89 146.11 195.20 146.00 Q192.62 146.00 191.73 146.00 L175.04 146.11 Q172.91 146.11 172.91 145.22 Q172.91 144.32 176.78 144.10 Q180.64 143.87 181.31 143.03 Q181.98 142.19 181.98 137.82 L181.87 73.54 Q181.76 71.52 180.70 71.02 Q179.63 70.51 174.93 70.40 Q173.14 70.40 173.14 69.17 Q173.14 68.05 175.15 68.05 L176.94 68.05 Q176.72 68.05 187.75 68.16 Q198.78 68.27 205.84 68.27 Q224.77 68.27 229.02 67.38 Q229.14 68.83 229.70 75.78 Q230.03 80.48 230.59 84.18 Q230.82 85.74 230.82 86.86 Z M281.72 121.81 Q281.72 132.67 275.11 140.01 Q268.50 147.34 258.64 147.34 Q248.45 147.34 241.62 140.01 Q234.79 132.67 234.79 121.81 Q234.79 110.61 241.45 103.22 Q248.12 95.82 258.08 95.82 Q268.16 95.82 274.94 103.27 Q281.72 110.72 281.72 121.81 Z M271.52 121.70 Q271.52 109.38 267.72 102.54 Q264.92 97.50 258.31 97.50 Q252.04 97.50 248.51 103.94 Q244.98 110.38 244.98 121.81 Q244.98 133.12 248.73 139.45 Q252.48 145.78 259.20 145.78 Q264.36 145.78 266.82 141.86 Q271.52 134.46 271.52 121.70 Z M341.58 142.19 Q341.58 142.98 339.11 143.09 Q330.38 143.65 323.77 146.90 Q323.32 147.12 322.98 147.12 Q322.31 147.12 322.31 146.22 L322.42 139.95 Q317.27 147.34 307.98 147.34 Q299.69 147.34 296.10 142.53 Q294.65 140.51 294.37 138.83 Q294.09 137.15 294.09 129.76 L294.09 104.11 Q294.09 100.19 293.64 99.52 Q293.19 98.85 290.62 98.74 L289.16 98.85 Q286.14 99.07 286.14 97.95 Q286.14 97.17 288.04 97.17 Q290.06 97.17 293.86 97.39 Q295.77 97.50 296.10 97.50 Q300.02 97.50 303.38 97.17 L303.38 128.42 Q303.38 137.04 304.50 139.84 Q306.30 144.21 311.78 144.21 Q317.72 144.21 320.52 139.28 Q322.54 135.70 322.54 127.86 L322.54 110.50 Q322.54 106.69 322.42 104.78 L322.20 101.09 Q322.09 99.41 321.47 99.13 Q320.86 98.85 318.95 98.85 Q314.25 98.96 314.25 97.84 Q314.25 97.17 316.60 97.17 L317.61 97.17 Q318.50 97.28 323.54 97.28 Q330.26 97.28 331.83 97.17 L331.83 128.42 Q331.83 136.48 332.17 138.61 Q332.50 140.74 333.90 141.07 Q335.30 141.41 340.23 141.41 Q341.58 141.41 341.58 142.19 Z M378.70 103.44 Q378.70 106.02 377.13 107.70 Q375.56 109.38 373.10 109.38 Q371.08 109.38 369.74 108.20 Q368.40 107.02 368.40 105.23 Q368.40 103.66 369.40 102.54 Q370.41 101.42 370.41 100.98 Q370.41 99.30 367.95 99.30 Q364.81 99.30 362.57 103.22 Q360.00 107.81 360.00 120.24 L360.00 142.42 Q360.00 143.76 360.95 144.10 Q361.90 144.43 366.72 144.54 Q367.95 144.77 367.95 145.44 Q367.95 146.22 366.49 146.22 Q363.92 146.22 361.68 146.11 Q359.44 146.00 353.16 146.00 Q349.92 146.00 348.46 146.11 Q347.00 146.22 344.76 146.22 Q342.97 146.22 342.97 145.44 Q342.97 144.66 344.43 144.66 L346.00 144.66 Q349.80 144.66 350.48 143.76 Q350.70 143.31 350.70 139.62 L350.70 108.82 Q350.70 102.66 348.85 101.70 Q347.00 100.75 342.97 100.64 Q341.63 100.64 341.63 99.86 Q341.63 99.07 342.75 99.07 L343.53 99.07 Q345.21 99.07 346.89 99.24 Q348.57 99.41 348.35 99.41 Q352.49 99.41 357.53 97.06 L358.99 96.38 L359.88 96.05 Q360.33 98.74 360.33 101.42 L360.33 103.66 Q363.92 95.82 370.41 95.82 Q374.00 95.82 376.35 98.01 Q378.70 100.19 378.70 103.44 Z M413.25 139.39 Q413.25 140.40 410.45 142.98 Q405.63 147.34 399.02 147.34 Q392.86 147.34 389.73 144.21 Q387.94 142.42 387.94 133.68 L387.94 100.30 Q387.82 99.18 386.70 99.07 L382.45 99.07 Q379.98 99.07 379.98 98.29 Q379.98 97.50 381.22 97.39 Q389.95 96.61 394.88 88.88 Q395.55 87.87 396.56 87.87 Q397.34 87.87 397.34 88.66 L397.34 89.10 Q397.23 89.66 397.23 91.01 Q397.23 95.71 397.68 97.06 Q398.69 97.28 401.04 97.28 Q407.20 97.28 409.22 96.72 Q409.66 96.61 410.00 96.61 Q410.90 96.61 410.90 97.62 Q410.90 99.30 401.82 99.30 Q400.26 99.30 397.23 99.18 L397.23 119.90 Q397.23 135.58 398.02 139.56 Q398.80 143.54 403.17 143.54 Q406.86 143.54 411.46 139.39 Q411.90 138.83 412.46 138.83 Q413.25 138.83 413.25 139.39 Z M464.71 145.33 Q464.71 146.22 462.80 146.22 Q461.91 146.22 461.12 146.11 Q457.20 146.22 443.65 146.22 L442.42 146.22 Q440.96 146.22 440.96 145.33 Q440.96 144.54 445.22 144.54 Q447.80 144.54 448.19 143.93 Q448.58 143.31 448.58 139.73 L448.58 116.99 Q448.58 106.80 447.68 104.34 Q445.78 99.18 439.28 99.18 Q433.91 99.18 430.55 104.00 Q429.43 105.57 429.43 110.94 L429.43 139.50 Q429.43 142.53 429.54 142.98 Q429.65 144.10 430.44 144.26 Q431.22 144.43 435.25 144.54 Q436.60 144.54 436.60 145.44 Q436.60 146.22 435.48 146.22 Q435.48 146.22 434.36 146.11 L425.51 146.00 Q416.21 145.89 415.20 146.22 L414.08 146.22 Q412.85 146.22 412.85 145.44 Q412.85 144.54 414.08 144.54 L415.76 144.54 L417.44 144.43 Q420.02 144.54 420.13 142.86 L420.13 92.58 Q420.13 74.66 419.57 73.20 Q418.90 72.08 414.08 71.97 Q411.40 71.97 411.40 71.18 Q411.40 70.51 411.96 70.40 Q412.52 70.29 415.76 70.18 Q421.48 70.06 426.74 67.49 Q427.19 67.26 428.31 66.93 Q429.09 68.27 429.09 75.55 L429.09 102.99 Q434.02 95.82 442.53 95.82 Q451.49 95.82 455.30 100.75 Q457.20 103.22 457.65 107.70 Q457.88 109.26 457.88 115.20 L457.88 143.42 Q457.99 144.54 463.70 144.54 Q464.71 144.77 464.71 145.33 Z M554.97 121.02 Q554.97 120.80 554.75 124.05 Q554.30 130.54 554.30 136.59 Q554.30 137.26 554.52 139.34 Q554.75 141.41 554.75 144.32 L554.75 145.33 Q554.75 146.78 553.85 146.78 Q552.96 146.78 552.28 145.10 Q550.72 141.41 549.15 140.29 Q541.08 147.34 529.77 147.34 Q513.31 147.34 502.50 135.86 Q491.69 124.38 491.69 106.91 Q491.69 89.33 501.60 78.18 Q511.52 67.04 527.20 67.04 Q532.91 67.04 536.32 67.99 Q539.74 68.94 544.78 71.86 Q547.24 73.31 548.48 73.31 Q549.48 73.31 550.38 71.52 Q551.84 68.38 552.73 68.38 Q553.63 68.38 553.63 69.28 Q553.63 69.73 553.40 70.74 Q552.17 76.11 552.17 90.90 Q552.17 93.02 551.84 93.36 Q551.50 93.70 550.94 93.70 Q549.82 93.70 549.48 91.57 Q548.03 82.61 545.34 78.24 Q539.85 69.28 528.09 69.28 Q519.02 69.28 513.76 75.33 Q504.24 86.19 504.24 107.14 Q504.24 125.84 512.08 136.14 Q518.91 145.10 530.22 145.10 Q536.04 145.10 540.86 142.25 Q545.68 139.39 548.25 134.46 Q551.16 128.75 552.40 122.03 Q552.84 119.34 553.85 119.34 Q554.97 119.34 554.97 121.02 Z M608.56 140.96 Q608.56 142.86 604.58 144.94 Q600.61 147.01 596.91 147.01 Q589.18 147.01 588.85 139.06 Q584.59 147.34 575.63 147.34 Q570.82 147.34 567.68 144.49 Q564.54 141.63 564.54 137.15 Q564.54 127.97 575.63 122.59 Q579.44 120.80 588.85 119.01 L588.85 116.21 Q588.85 106.35 587.84 103.22 Q586.05 97.50 579.78 97.50 Q575.86 97.50 573.22 99.63 Q570.59 101.76 570.59 105.01 Q570.59 105.90 571.99 105.90 Q573.39 105.90 574.51 107.25 Q575.63 108.59 575.63 110.27 Q575.63 115.20 570.70 115.20 Q568.13 115.20 566.45 113.46 Q564.77 111.73 564.77 109.04 Q564.77 103.78 568.91 99.97 Q573.50 95.82 581.68 95.82 Q594.00 95.82 596.80 102.54 Q597.81 105.12 597.81 112.74 L597.81 133.68 Q597.81 138.83 597.92 139.73 Q598.48 143.76 601.17 143.76 Q604.30 143.76 606.32 141.52 Q607.44 140.29 608.00 140.29 Q608.56 140.29 608.56 140.96 Z M588.85 129.09 L588.85 120.91 Q580.45 122.82 576.81 125.90 Q573.17 128.98 573.17 134.13 Q573.17 137.71 575.24 140.01 Q577.31 142.30 580.45 142.30 Q585.26 142.30 588.18 136.93 Q588.85 135.70 588.85 129.09 Z M659.80 145.33 Q659.80 146.22 658.12 146.22 L656.77 146.22 Q654.76 146.00 651.28 146.00 Q640.31 146.00 638.29 146.22 L637.51 146.22 Q636.05 146.22 636.05 145.44 Q636.05 144.88 636.67 144.77 Q637.28 144.66 640.98 144.54 Q643.11 144.43 643.44 143.93 Q643.78 143.42 643.78 140.29 L643.78 118.78 Q643.78 106.58 642.88 104.22 Q640.98 99.18 635.27 99.18 Q629.67 99.18 625.86 104.11 Q624.74 105.57 624.74 108.14 L624.85 143.09 Q624.85 144.43 627.20 144.54 L630.56 144.66 Q631.68 144.66 631.68 145.44 Q631.68 146.22 630.34 146.22 L628.55 146.22 Q626.08 146.00 620.71 146.00 Q619.48 146.00 615.39 146.11 Q611.30 146.22 610.63 146.22 L609.96 146.22 Q608.28 146.22 608.28 145.44 Q608.28 144.66 610.29 144.43 Q611.75 144.43 613.09 144.43 Q614.77 144.43 615.11 143.65 L615.44 141.97 L615.44 117.55 Q615.44 104.78 615.22 103.44 Q615.00 102.10 612.42 102.10 Q611.64 102.10 609.73 102.32 L609.17 102.32 Q606.93 102.32 606.93 101.54 Q606.93 100.53 609.28 100.53 Q612.64 100.42 616.56 99.30 Q620.48 98.18 622.05 96.72 Q623.06 95.82 623.62 95.82 Q624.40 95.82 624.40 97.95 L624.40 103.33 Q630.23 95.82 639.41 95.82 Q647.48 95.82 651.06 101.76 Q653.08 105.12 653.08 114.53 L653.08 140.06 Q653.08 143.65 653.41 143.98 Q654.08 144.66 656.66 144.66 Q657.00 144.66 657.89 144.54 L658.68 144.54 Q659.80 144.54 659.80 145.33 Z M708.79 140.96 Q708.79 142.86 704.82 144.94 Q700.84 147.01 697.14 147.01 Q689.42 147.01 689.08 139.06 Q684.82 147.34 675.86 147.34 Q671.05 147.34 667.91 144.49 Q664.78 141.63 664.78 137.15 Q664.78 127.97 675.86 122.59 Q679.67 120.80 689.08 119.01 L689.08 116.21 Q689.08 106.35 688.07 103.22 Q686.28 97.50 680.01 97.50 Q676.09 97.50 673.46 99.63 Q670.82 101.76 670.82 105.01 Q670.82 105.90 672.22 105.90 Q673.62 105.90 674.74 107.25 Q675.86 108.59 675.86 110.27 Q675.86 115.20 670.94 115.20 Q668.36 115.20 666.68 113.46 Q665.00 111.73 665.00 109.04 Q665.00 103.78 669.14 99.97 Q673.74 95.82 681.91 95.82 Q694.23 95.82 697.03 102.54 Q698.04 105.12 698.04 112.74 L698.04 133.68 Q698.04 138.83 698.15 139.73 Q698.71 143.76 701.40 143.76 Q704.54 143.76 706.55 141.52 Q707.67 140.29 708.23 140.29 Q708.79 140.29 708.79 140.96 Z M689.08 129.09 L689.08 120.91 Q680.68 122.82 677.04 125.90 Q673.40 128.98 673.40 134.13 Q673.40 137.71 675.47 140.01 Q677.54 142.30 680.68 142.30 Q685.50 142.30 688.41 136.93 Q689.08 135.70 689.08 129.09 Z M731.02 145.22 Q731.02 146.22 729.56 146.22 L728.22 146.22 Q728.00 146.22 722.28 146.00 L718.81 145.89 Q717.92 145.89 709.85 146.22 Q709.18 146.34 708.51 146.34 Q706.83 146.45 706.83 145.33 Q706.83 144.54 708.06 144.54 L710.97 144.54 Q714.11 144.54 714.11 143.20 Q714.22 142.53 714.22 134.46 L714.22 77.46 Q714.22 73.76 714.00 73.42 Q713.66 72.53 712.20 72.53 L711.31 72.53 L708.17 72.64 Q706.60 72.64 706.60 71.63 Q706.60 70.74 709.40 70.62 Q714.78 70.29 719.37 68.16 L721.72 67.04 L722.62 66.70 Q723.52 69.95 723.40 76.56 L723.29 84.51 L723.40 139.39 Q723.40 142.75 723.52 143.37 Q723.63 143.98 724.30 144.21 Q724.41 144.32 728.44 144.43 Q731.02 144.43 731.02 145.22 Z"/>
  <path fill="#F2EDE2" d="M177.50 175.67 L181.26 175.67 Q182.32 175.67 183.38 176.02 Q184.45 176.38 185.30 177.09 Q186.16 177.80 186.69 178.86 Q187.22 179.93 187.22 181.34 Q187.22 182.76 186.69 183.82 Q186.16 184.87 185.30 185.58 Q184.45 186.30 183.38 186.65 Q182.32 187.00 181.26 187.00 L177.50 187.00 Z M178.66 185.98 L180.94 185.98 Q182.22 185.98 183.18 185.58 Q184.13 185.18 184.75 184.53 Q185.38 183.88 185.69 183.05 Q186.00 182.22 186.00 181.34 Q186.00 180.46 185.69 179.62 Q185.38 178.79 184.75 178.14 Q184.13 177.50 183.18 177.10 Q182.22 176.70 180.94 176.70 L178.66 176.70 Z M197.77 185.98 L203.83 185.98 L203.83 187.00 L196.62 187.00 L196.62 175.67 L203.64 175.67 L203.64 176.70 L197.77 176.70 L197.77 180.60 L203.26 180.60 L203.26 181.61 L197.77 181.61 Z M221.12 185.32 L221.15 185.32 L221.15 175.67 L222.30 175.67 L222.30 187.00 L220.86 187.00 L214.27 177.26 L214.24 177.26 L214.24 187.00 L213.09 187.00 L213.09 175.67 L214.53 175.67 Z M235.94 187.00 L234.79 187.00 L234.79 176.70 L231.00 176.70 L231.00 175.67 L239.74 175.67 L239.74 176.70 L235.94 176.70 Z M247.39 187.00 L246.13 187.00 L251.02 175.67 L252.14 175.67 L257.01 187.00 L255.73 187.00 L254.48 184.02 L248.62 184.02 Z M249.06 182.97 L254.05 182.97 L251.55 176.95 Z M266.82 185.98 L272.10 185.98 L272.10 187.00 L265.67 187.00 L265.67 175.67 L266.82 175.67 Z M292.60 185.98 L298.66 185.98 L298.66 187.00 L291.45 187.00 L291.45 175.67 L298.47 175.67 L298.47 176.70 L292.60 176.70 L292.60 180.60 L298.09 180.60 L298.09 181.61 L292.60 181.61 Z M307.92 175.67 L311.68 175.67 Q312.74 175.67 313.80 176.02 Q314.86 176.38 315.72 177.09 Q316.58 177.80 317.10 178.86 Q317.63 179.93 317.63 181.34 Q317.63 182.76 317.10 183.82 Q316.58 184.87 315.72 185.58 Q314.86 186.30 313.80 186.65 Q312.74 187.00 311.68 187.00 L307.92 187.00 Z M309.07 185.98 L311.36 185.98 Q312.64 185.98 313.59 185.58 Q314.54 185.18 315.17 184.53 Q315.79 183.88 316.10 183.05 Q316.42 182.22 316.42 181.34 Q316.42 180.46 316.10 179.62 Q315.79 178.79 315.17 178.14 Q314.54 177.50 313.59 177.10 Q312.64 176.70 311.36 176.70 L309.07 176.70 Z M331.21 187.29 Q329.93 187.29 329.11 186.85 Q328.30 186.41 327.82 185.74 Q327.34 185.06 327.15 184.27 Q326.97 183.48 326.97 182.78 L326.97 175.67 L328.12 175.67 L328.12 182.65 Q328.12 183.34 328.28 183.98 Q328.44 184.63 328.80 185.14 Q329.16 185.64 329.75 185.95 Q330.34 186.26 331.21 186.26 Q332.07 186.26 332.66 185.95 Q333.26 185.64 333.62 185.14 Q333.98 184.63 334.14 183.98 Q334.30 183.34 334.30 182.65 L334.30 175.67 L335.45 175.67 L335.45 182.78 Q335.45 183.48 335.26 184.27 Q335.08 185.06 334.60 185.74 Q334.12 186.41 333.30 186.85 Q332.47 187.29 331.21 187.29 Z M354.93 185.18 Q354.64 185.61 354.23 185.99 Q353.82 186.38 353.29 186.66 Q352.75 186.95 352.10 187.12 Q351.46 187.29 350.69 187.29 Q349.41 187.29 348.32 186.84 Q347.23 186.39 346.45 185.60 Q345.66 184.81 345.22 183.72 Q344.78 182.63 344.78 181.34 Q344.78 180.04 345.23 178.95 Q345.68 177.86 346.47 177.07 Q347.26 176.28 348.34 175.83 Q349.42 175.38 350.69 175.38 Q351.31 175.38 351.91 175.51 Q352.51 175.64 353.04 175.87 Q353.57 176.10 354.00 176.43 Q354.43 176.76 354.72 177.18 L353.76 177.88 Q353.58 177.61 353.29 177.34 Q352.99 177.06 352.59 176.86 Q352.19 176.65 351.72 176.52 Q351.25 176.39 350.70 176.39 Q349.60 176.39 348.73 176.79 Q347.86 177.19 347.25 177.87 Q346.64 178.55 346.32 179.45 Q346.00 180.34 346.00 181.34 Q346.00 182.33 346.33 183.22 Q346.66 184.12 347.26 184.80 Q347.87 185.48 348.74 185.88 Q349.62 186.28 350.70 186.28 Q351.68 186.28 352.56 185.88 Q353.44 185.48 354.03 184.60 Z M363.64 187.00 L362.38 187.00 L367.27 175.67 L368.39 175.67 L373.26 187.00 L371.98 187.00 L370.73 184.02 L364.87 184.02 Z M365.30 182.97 L370.30 182.97 L367.80 176.95 Z M384.59 187.00 L383.44 187.00 L383.44 176.70 L379.65 176.70 L379.65 175.67 L388.38 175.67 L388.38 176.70 L384.59 176.70 Z M398.23 187.00 L397.08 187.00 L397.08 175.67 L398.23 175.67 Z M419.44 181.34 Q419.44 182.63 418.99 183.72 Q418.54 184.81 417.75 185.60 Q416.96 186.39 415.88 186.84 Q414.80 187.29 413.54 187.29 Q412.27 187.29 411.19 186.84 Q410.11 186.39 409.32 185.60 Q408.53 184.81 408.08 183.72 Q407.63 182.63 407.63 181.34 Q407.63 180.04 408.08 178.95 Q408.53 177.86 409.32 177.07 Q410.11 176.28 411.19 175.83 Q412.27 175.38 413.54 175.38 Q414.80 175.38 415.88 175.83 Q416.96 176.28 417.75 177.07 Q418.54 177.86 418.99 178.95 Q419.44 180.04 419.44 181.34 Z M418.22 181.34 Q418.22 180.34 417.90 179.45 Q417.58 178.55 416.98 177.87 Q416.37 177.19 415.50 176.79 Q414.62 176.39 413.54 176.39 Q412.45 176.39 411.58 176.79 Q410.70 177.19 410.10 177.87 Q409.49 178.55 409.17 179.45 Q408.85 180.34 408.85 181.34 Q408.85 182.33 409.17 183.22 Q409.49 184.12 410.10 184.79 Q410.70 185.46 411.58 185.86 Q412.45 186.26 413.54 186.26 Q414.62 186.26 415.50 185.86 Q416.37 185.46 416.98 184.79 Q417.58 184.12 417.90 183.22 Q418.22 182.33 418.22 181.34 Z M436.87 185.32 L436.90 185.32 L436.90 175.67 L438.06 175.67 L438.06 187.00 L436.62 187.00 L430.02 177.26 L429.99 177.26 L429.99 187.00 L428.84 187.00 L428.84 175.67 L430.28 175.67 Z"/>
  <path d="M176 207h62" stroke="#B35A2E" stroke-width="2"/>
</svg>